<svg width="845" height="693" viewBox="0 0 845 693" fill="none" xmlns="http://www.w3.org/2000/svg">
<g clip-path="url(#clip0)">
<path opacity="0.1" d="M490.952 91.9445C436.78 90.0874 385.186 72.8458 335.92 53.9782C286.653 35.1106 237.855 14.2044 184.981 4.20937C150.973 -2.22013 112.077 -3.12802 84.6812 14.8482C58.3068 32.1806 49.786 62.0171 45.2076 89.7325C41.7591 110.581 39.7335 132.527 49.175 152.038C55.7372 165.591 67.3717 176.981 75.4238 189.963C103.439 235.127 83.6349 290.822 53.2848 334.92C39.0555 355.612 22.5245 375.363 11.5345 397.367C0.544447 419.371 -4.53623 444.618 5.08107 467.084C14.6063 489.369 37.3145 506.074 61.9144 517.835C111.876 541.729 170.726 548.563 228.154 552.434C355.238 561.01 482.991 557.295 610.41 553.581C657.568 552.203 704.926 550.808 751.313 543.619C777.077 539.625 803.669 533.294 822.376 517.992C846.114 498.572 851.998 465.689 836.086 441.333C809.402 400.486 735.644 390.343 716.971 346.508C706.709 322.375 717.247 295.501 732.171 273.118C764.178 225.115 817.823 182.997 820.643 128.128C822.585 90.4423 796.797 52.6989 756.921 34.863C715.129 16.177 657.166 18.521 626.347 49.4635C594.582 81.3222 538.787 93.5787 490.952 91.9445Z" fill="#62D2A2"/>
<path opacity="0.1" d="M404.688 678.532C545.205 678.532 659.116 663.337 659.116 644.593C659.116 625.849 545.205 610.654 404.688 610.654C264.172 610.654 150.261 625.849 150.261 644.593C150.261 663.337 264.172 678.532 404.688 678.532Z" fill="#62D2A2"/>
<path d="M278.734 543.553C278.734 543.553 296.312 540.78 306.858 553.028C306.858 553.028 299.124 559.037 282.484 550.717L278.734 543.553Z" fill="#62D2A2"/>
<path d="M276.859 543.281C276.859 543.281 265.643 556.965 271.143 572.044C271.143 572.044 280.283 568.438 281.279 550.065L276.859 543.281Z" fill="#62D2A2"/>
<path d="M266.815 520.905C266.815 520.905 273.846 508.195 301.97 525.99C301.97 525.99 298.22 534.54 285.799 533.847C273.377 533.154 270.054 527.607 266.815 520.905Z" fill="#62D2A2"/>
<path d="M264.965 519.989C264.965 519.989 250.376 518.339 248.962 551.27C248.962 551.27 258.211 553.169 264.781 542.744C271.352 532.32 268.632 526.493 264.965 519.989Z" fill="#62D2A2"/>
<path d="M256.461 493.727C256.461 493.727 264.664 471.302 294.437 487.248C294.437 487.248 287.64 507.824 259.508 501.353L256.461 493.727Z" fill="#62D2A2"/>
<path d="M247.321 460.209C247.321 460.209 262.789 437.561 290.218 458.558C290.218 458.558 280.609 479.819 249.665 468.264L247.321 460.209Z" fill="#62D2A2"/>
<path d="M244.04 428.317C244.04 428.317 262.086 407.518 289.239 428.317C289.239 428.317 272.122 446.574 244.04 433.633V428.317Z" fill="#62D2A2"/>
<path d="M241.228 397.35C241.228 397.35 259.508 375.618 285.531 396.195C285.531 396.195 264.898 415.376 241.228 402.434V397.35Z" fill="#62D2A2"/>
<path d="M242.868 369.841C242.868 369.841 262.12 341.878 286.468 360.828C286.468 360.828 265.836 384.871 242.868 375.156V369.841Z" fill="#62D2A2"/>
<path d="M247.321 337.718C247.321 337.718 267.711 309.986 291.39 331.247C291.39 331.247 267.242 355.282 247.321 342.802V337.718Z" fill="#62D2A2"/>
<path d="M254.126 309.004C254.126 309.004 278.257 282.948 299.325 293.322C299.325 293.322 274.164 320.997 253.071 315.912L254.126 309.004Z" fill="#62D2A2"/>
<path d="M262.555 281.792C262.555 281.792 290.453 249.892 306.624 260.523C306.624 260.523 286.1 285.284 260.588 287.801L262.555 281.792Z" fill="#62D2A2"/>
<path d="M274.733 250.214C274.733 250.214 299.124 224.15 316.936 230.62C316.936 230.62 296.077 257.667 271.461 258.36L274.733 250.214Z" fill="#62D2A2"/>
<path d="M285.765 220.683C285.765 220.683 312.717 195.724 324.435 200.115C324.435 200.115 304.983 227.847 284.593 226.229L285.765 220.683Z" fill="#62D2A2"/>
<path d="M296.546 193.413C296.546 193.413 319.748 163.602 332.404 165.913C332.404 165.913 318.342 192.489 296.546 196.451V193.413Z" fill="#62D2A2"/>
<path d="M308.239 156.669C308.239 156.669 328.754 133.806 339.828 133.864C339.828 133.864 323.64 164.402 307.402 164.122L308.239 156.669Z" fill="#62D2A2"/>
<path d="M315.178 132.164L334.982 84.5575C334.982 84.5575 335.978 127.591 312.65 140.995L315.178 132.164Z" fill="#62D2A2"/>
<path d="M323.213 79.6631C323.213 79.6631 326.494 39.9141 324.385 36.6787C324.385 36.6787 338.556 69.6929 323.079 97.2267L323.213 79.6631Z" fill="#62D2A2"/>
<path d="M255.7 493.19C255.7 493.19 235.151 480.637 221.859 511.348C221.859 511.348 240.14 523.315 258.11 501.023L255.7 493.19Z" fill="#62D2A2"/>
<path d="M246.668 458.93C246.668 458.93 221.474 447.598 209.245 479.663C209.245 479.663 228.714 492.868 248.962 467.035L246.668 458.93Z" fill="#62D2A2"/>
<path d="M242.868 430.224C242.868 430.224 224.822 409.425 197.669 430.224C197.669 430.224 214.778 448.481 242.868 435.539V430.224Z" fill="#62D2A2"/>
<path d="M240.617 397.35C240.617 397.35 222.328 375.618 196.313 396.195C196.313 396.195 216.938 415.376 240.617 402.434V397.35Z" fill="#62D2A2"/>
<path d="M242.868 370.633C242.868 370.633 230.045 339.311 202.173 352.781C202.173 352.781 217.239 380.562 241.738 375.833L242.868 370.633Z" fill="#62D2A2"/>
<path d="M248.937 337.561C248.937 337.561 236.197 305.694 207.923 320.468C207.923 320.468 225.232 349.678 247.681 342.489L248.937 337.561Z" fill="#62D2A2"/>
<path d="M256.838 309.169C256.838 309.169 251.816 274.224 228.421 271.096C228.421 271.096 233.385 307.939 253.716 315.458L256.838 309.169Z" fill="#62D2A2"/>
<path d="M263.157 281.85C263.157 281.85 261.19 239.757 241.814 238.296C241.814 238.296 242.466 270.237 260.973 287.817L263.157 281.85Z" fill="#62D2A2"/>
<path d="M276.751 249.009C276.751 249.009 270.967 214.014 252.477 209.731C252.477 209.731 254.771 243.628 274.918 257.601L276.751 249.009Z" fill="#62D2A2"/>
<path d="M287.958 220.939C287.958 220.939 287.757 184.475 276.458 179.118C276.458 179.118 269.452 212.132 284.685 225.594L287.958 220.939Z" fill="#62D2A2"/>
<path d="M297.408 192.984C297.408 192.984 295.818 155.431 284.125 150.14C284.125 150.14 280.115 179.853 295.65 195.436L297.408 192.984Z" fill="#62D2A2"/>
<path d="M309.88 159.64C309.88 159.64 309.804 129.102 301.451 121.938C301.451 121.938 293.148 155.398 305.519 165.781L309.88 159.64Z" fill="#62D2A2"/>
<path d="M314.19 130.662L306.071 79.8282C306.071 79.8282 295.023 121.484 314.575 139.831L314.19 130.662Z" fill="#62D2A2"/>
<path d="M315.781 80.1418C315.781 80.1418 294.914 45.9804 295.349 42.1756C295.349 42.1756 297.559 77.9959 323.808 95.8236L315.781 80.1418Z" fill="#62D2A2"/>
<path d="M318.225 70.056C318.225 70.056 298.538 21.517 289.632 17.5883C289.632 17.5883 317.756 31.6853 319.865 68.6694L318.225 70.056Z" fill="#62D2A2"/>
<path d="M307.293 164.386L305.946 163.981C322.56 110.556 326.712 76.4938 317.622 67.9596L318.593 66.9527C328.219 75.9573 324.318 109.623 307.293 164.386Z" fill="#444053"/>
<path d="M261.542 289.443L259.558 288.75C261.316 283.856 263.216 278.887 265.208 273.984C282.551 231.363 297.316 191.721 306.783 161.282L308.515 160.457C299.032 190.954 284.535 232.122 267.167 274.793C265.183 279.646 263.291 284.598 261.542 289.443Z" fill="#444053"/>
<path d="M303.468 583.542C303.2 583.244 276.265 553.35 257.499 502.294C246.495 472.413 240.365 441.001 239.336 409.227C238.047 369.503 246.501 325.148 260.981 284.863L262.555 286.678C230.054 377.104 242.969 454.597 260.094 501.27C278.676 551.856 305.293 581.437 305.561 581.726L303.468 583.542Z" fill="#444053"/>
<path d="M543.532 239.204H539.95C538.891 239.204 538.033 240.05 538.033 241.094V297.581C538.033 298.625 538.891 299.471 539.95 299.471H543.532C544.591 299.471 545.449 298.625 545.449 297.581V241.094C545.449 240.05 544.591 239.204 543.532 239.204Z" fill="#3A3768"/>
<path d="M293.834 191.986H293.508C292.449 191.986 291.591 192.832 291.591 193.876V209.937C291.591 210.981 292.449 211.827 293.508 211.827H293.834C294.893 211.827 295.751 210.981 295.751 209.937V193.876C295.751 192.832 294.893 191.986 293.834 191.986Z" fill="#3A3768"/>
<path d="M294.211 228.318H293.357C292.298 228.318 291.44 229.164 291.44 230.208V260.96C291.44 262.004 292.298 262.85 293.357 262.85H294.211C295.269 262.85 296.128 262.004 296.128 260.96V230.208C296.128 229.164 295.269 228.318 294.211 228.318Z" fill="#3A3768"/>
<path d="M294.06 274.934H293.432C292.374 274.934 291.516 275.78 291.516 276.824V307.873C291.516 308.917 292.374 309.763 293.432 309.763H294.06C295.119 309.763 295.977 308.917 295.977 307.873V276.824C295.977 275.78 295.119 274.934 294.06 274.934Z" fill="#3A3768"/>
<path d="M509.399 126.419H326.578C308.554 126.419 293.943 140.827 293.943 158.6V591.424C293.943 609.196 308.554 623.604 326.578 623.604H509.399C527.423 623.604 542.034 609.196 542.034 591.424V158.6C542.034 140.827 527.423 126.419 509.399 126.419Z" fill="#3A3768"/>
<path d="M507.038 139.336H478.58V142.712C478.58 144.813 478.16 146.894 477.344 148.835C476.529 150.776 475.333 152.54 473.826 154.025C472.319 155.511 470.53 156.689 468.56 157.492C466.591 158.295 464.481 158.708 462.35 158.707H371.844C369.713 158.708 367.603 158.295 365.634 157.492C363.665 156.689 361.875 155.511 360.368 154.025C358.861 152.54 357.665 150.776 356.85 148.835C356.034 146.894 355.614 144.813 355.614 142.712V139.336H328.972C323.746 139.336 318.735 141.383 315.04 145.027C311.345 148.67 309.269 153.612 309.269 158.765V591.226C309.269 596.378 311.345 601.32 315.04 604.964C318.735 608.607 323.746 610.654 328.972 610.654H507.038C512.264 610.654 517.276 608.607 520.971 604.964C524.666 601.32 526.742 596.378 526.742 591.226V158.798C526.746 156.244 526.24 153.714 525.252 151.353C524.263 148.992 522.813 146.846 520.983 145.038C519.153 143.231 516.979 141.797 514.586 140.818C512.194 139.84 509.629 139.336 507.038 139.336V139.336Z" fill="#62D2A2"/>
<path d="M425.463 141.268H397.297C395.509 141.268 394.058 142.698 394.058 144.462V145.006C394.058 146.77 395.509 148.201 397.297 148.201H425.463C427.252 148.201 428.702 146.77 428.702 145.006V144.462C428.702 142.698 427.252 141.268 425.463 141.268Z" fill="#E6E8EC"/>
<path d="M437.935 148.671C440.14 148.671 441.927 146.908 441.927 144.734C441.927 142.56 440.14 140.797 437.935 140.797C435.73 140.797 433.942 142.56 433.942 144.734C433.942 146.908 435.73 148.671 437.935 148.671Z" fill="#E6E8EC"/>
<path d="M627.929 104.614C627.929 104.614 557.452 100.421 565.755 149.117C565.755 149.117 564.081 157.725 572.016 161.629C572.016 161.629 572.142 158.022 579.248 159.252C581.778 159.666 584.348 159.787 586.906 159.615C590.358 159.391 593.642 158.068 596.264 155.843V155.843C596.264 155.843 616.076 147.771 623.777 115.847C623.777 115.847 629.477 108.881 629.251 107.09L617.357 112.1C617.357 112.1 621.425 120.559 618.194 127.591C618.194 127.591 617.809 112.405 615.524 112.735C615.064 112.801 609.347 115.665 609.347 115.665C609.347 115.665 616.336 130.398 611.063 141.111C611.063 141.111 613.063 122.953 607.162 116.73L598.792 121.55C598.792 121.55 606.961 136.769 601.42 149.191C601.42 149.191 602.843 130.142 597.026 122.722L589.443 128.557C589.443 128.557 597.118 143.554 592.439 153.854C592.439 153.854 591.828 131.685 587.802 130.01C587.802 130.01 581.165 135.787 580.152 138.148C580.152 138.148 585.408 149.042 582.144 154.787C582.144 154.787 580.143 140.013 578.503 139.93C578.503 139.93 571.89 149.719 571.204 156.438C571.204 156.438 571.489 146.459 576.904 139.006C576.904 139.006 570.509 140.087 566.776 144.173C566.776 144.173 567.806 137.256 578.536 136.646C578.536 136.646 584.002 129.217 585.458 128.772C585.458 128.772 574.795 127.889 568.325 130.72C568.325 130.72 574.016 124.191 587.417 127.162L594.908 121.129C594.908 121.129 580.863 119.239 574.904 121.327C574.904 121.327 581.759 115.55 596.926 119.759L605.078 114.955C605.078 114.955 593.1 112.413 585.969 113.305C585.969 113.305 593.502 109.302 607.472 113.643L613.331 111.06C613.331 111.06 604.559 109.359 601.99 109.087C599.42 108.815 599.286 108.121 599.286 108.121C604.843 107.208 610.549 107.833 615.767 109.929C615.767 109.929 628.138 105.381 627.929 104.614Z" fill="#62D2A2"/>
<path d="M555.636 82.9563C555.636 82.9563 523.829 81.0662 527.545 103.07C527.545 103.07 526.8 106.958 530.374 108.724C530.374 108.724 530.433 107.073 533.647 107.643C534.789 107.832 535.949 107.888 537.104 107.808C538.665 107.706 540.15 107.103 541.331 106.091V106.091C541.331 106.091 550.287 102.443 553.769 88.0157C553.769 88.0157 556.339 84.8711 556.238 84.0623L550.865 86.3237C550.865 86.3237 552.698 90.1451 551.258 93.3227C551.258 93.3227 551.082 86.4641 550.053 86.6209C549.843 86.6209 547.257 87.9497 547.257 87.9497C547.257 87.9497 550.421 94.6103 548.035 99.4469C548.035 99.4469 548.939 91.2429 546.269 88.4284L542.486 90.6403C542.486 90.6403 546.177 97.5155 543.675 103.128C543.675 103.128 544.319 94.5195 541.691 91.1686L538.268 93.8097C538.268 93.8097 541.733 100.586 539.624 105.241C539.624 105.241 539.339 95.2211 537.523 94.4617C537.523 94.4617 534.526 97.0699 534.066 98.1428C534.066 98.1428 536.443 103.095 534.97 105.662C534.97 105.662 534.066 98.9847 533.296 98.9517C533.296 98.9517 530.308 103.376 529.998 106.38C530.147 103.579 531.036 100.865 532.576 98.506C530.851 98.828 529.26 99.6399 527.997 100.842C527.997 100.842 528.466 97.7136 533.312 97.4413C533.312 97.4413 535.823 94.0821 536.443 93.8757C536.443 93.8757 531.622 93.4796 528.7 94.7589C528.7 94.7589 531.27 91.8123 537.322 93.1494L540.67 90.4258C540.67 90.4258 534.317 89.6004 531.63 90.5165C531.63 90.5165 534.727 87.9084 541.582 89.8067L545.265 87.6361C545.265 87.6361 539.849 86.4888 536.627 86.9015C536.627 86.9015 540.034 85.094 546.345 87.0501L548.981 85.8863C548.981 85.8863 545.014 85.1187 543.85 84.9949C542.687 84.8711 542.628 84.5575 542.628 84.5575C545.141 84.1453 547.721 84.4311 550.078 85.3828C550.078 85.3828 555.736 83.303 555.636 82.9563Z" fill="#62D2A2"/>
<path opacity="0.1" d="M504.603 186.678H331.383V549.207H504.603V186.678Z" fill="black"/>
<path d="M499.296 650.412C499.296 650.412 495.211 641.036 493.387 636.711C492.357 634.235 490.616 633.822 489.285 633.88L489.361 633.055L489.687 629.151L489.754 628.325C492.91 627.673 495.613 627.161 495.613 627.161L493.646 527.03C493.646 527.03 492.809 525.973 490.784 519.601C489.779 516.424 484.925 512.52 480.388 509.408C479.676 508.921 478.982 508.459 478.295 508.013C479.947 506.649 481.683 505.386 483.493 504.233C486.071 502.756 486.925 494.329 486.925 494.329L486.498 495.154C486.925 494.329 486.498 472.812 486.498 472.812L484.992 450.478C484.992 450.478 483.92 423.926 475.55 416.969C467.18 410.011 456.608 407.576 456.608 407.576L450.749 406.091L439.952 403.359C439.65 402.872 439.357 402.36 439.115 401.823C439.006 401.617 438.905 401.403 438.805 401.188C442.104 398.885 444.795 395.836 446.651 392.296C448.508 388.756 449.477 384.828 449.477 380.843C449.479 379.505 449.37 378.169 449.151 376.848C449.151 376.601 449.058 376.345 449.008 376.097C449.895 375.498 450.735 374.833 451.519 374.108C452.798 373.103 453.843 371.84 454.583 370.402C454.699 370.121 454.794 369.831 454.867 369.536C454.867 369.453 454.867 369.371 454.918 369.28C454.968 369.189 454.993 368.842 455.018 368.619C455.018 368.537 455.018 368.454 455.018 368.372C455.018 368.132 455.018 367.885 455.018 367.646C455.018 367.588 455.018 367.53 455.018 367.464C455.018 367.192 454.976 366.919 454.934 366.639C454.938 366.622 454.938 366.605 454.934 366.589V366.589C454.781 365.631 454.529 364.69 454.181 363.783C453.344 361.653 452.256 359.656 451.863 357.386C451.377 354.704 451.938 351.774 450.64 349.364C450.102 348.453 449.365 347.67 448.484 347.072C447.603 346.474 446.599 346.076 445.543 345.906C443.418 345.583 441.245 345.828 439.249 346.616C438.273 347.073 437.22 347.353 436.143 347.441C435.36 347.396 434.592 347.212 433.875 346.896C431.39 345.935 429.03 344.685 426.844 343.174C425.271 341.95 423.59 340.867 421.822 339.938C420.934 339.481 419.954 339.223 418.952 339.183C417.951 339.143 416.953 339.322 416.03 339.707C412.933 341.259 412.347 345.584 409.468 347.49C407.484 348.811 404.898 348.679 402.504 348.761C400.11 348.844 397.398 349.43 396.218 351.477C395.381 352.896 395.582 354.588 395.741 356.247L395.791 356.809C395.791 357.007 395.791 357.213 395.841 357.411C395.973 359.533 395.651 361.659 394.895 363.651C393.74 366.672 391.547 369.651 391.623 372.73C391.629 373.22 391.694 373.707 391.815 374.182C391.881 374.42 391.959 374.654 392.049 374.884V374.884C392.51 375.904 393.027 376.899 393.598 377.863L393.673 377.995C393.732 378.111 393.79 378.227 393.841 378.342C393.891 378.458 393.991 378.656 394.05 378.813C394.108 378.969 394.117 378.969 394.142 379.044C394.167 379.118 394.251 379.349 394.293 379.506C394.431 379.972 394.49 380.457 394.468 380.942C394.37 381.568 394.317 382.199 394.309 382.832C394.312 383.149 394.425 383.455 394.629 383.7C394.833 383.945 395.116 384.113 395.431 384.177C395.776 384.169 396.112 384.066 396.402 383.88C397.153 383.458 397.867 382.975 398.536 382.436C398.536 382.7 398.536 382.964 398.586 383.261C399.169 389.169 401.867 394.678 406.195 398.803C406.195 399.058 406.195 399.323 406.136 399.628C406.078 399.933 406.095 400.222 406.078 400.528L396.703 403.433C396.703 403.433 396.753 403.598 396.854 403.879L395.866 404.266C391.003 406.206 385.588 408.616 382.558 410.803C381.218 411.761 379.996 412.545 378.9 413.197C374.919 415.599 371.866 419.245 370.228 423.555L370.103 423.869C369.266 425.759 365.164 438.618 365.164 438.618C365.164 438.618 362.16 445.782 361.724 450.42C361.724 450.42 356.786 465.797 358.075 475.915C358.075 475.915 354.208 490.458 355.715 492.769C355.715 492.769 354.174 499.025 360.938 505.323C360.444 505.62 359.908 505.942 359.347 506.297C354.108 509.549 346.549 514.823 345.26 518.892C343.26 525.222 342.398 526.32 342.398 526.32L340.372 626.295C340.372 626.295 343.076 626.807 346.231 627.45L346.298 628.276L346.625 632.171L346.7 632.997C345.369 632.939 343.628 633.393 342.599 635.836C340.766 640.153 336.739 649.52 336.739 649.52C336.739 649.52 327.725 657.774 333.191 665.433C333.431 665.783 333.712 666.104 334.028 666.391C337.953 669.907 346.323 667.653 352.274 665.359C355.299 664.086 357.906 662.012 359.808 659.367C360.047 659.057 360.35 658.799 360.695 658.611C361.041 658.422 361.423 658.305 361.816 658.269C363.181 658.052 364.468 657.498 365.558 656.66C366.214 656.187 366.744 655.565 367.103 654.846C367.461 654.127 367.638 653.334 367.617 652.533C367.613 652.492 367.613 652.45 367.617 652.409L367.09 640.664C367.09 640.664 366.445 632.46 364.394 632.988L363.867 633.112L363.725 632.287L363.449 630.694L363.306 629.869H364.445C364.445 629.869 364.729 620.592 368.169 613.296C371.61 605.999 373.869 547.061 373.869 547.061C373.869 547.061 416.448 547.746 417.871 543.809C418.708 543.809 419.621 543.809 420.491 543.751C421.922 547.688 462.108 547.878 462.108 547.878C462.108 547.878 464.393 606.883 467.824 614.187C468.549 615.751 469.15 617.368 469.624 619.024V619.024C470.704 622.851 471.353 626.784 471.557 630.752H472.696L472.545 631.577L472.269 633.162L472.127 633.987L471.583 633.863C469.549 633.343 468.904 641.547 468.904 641.547L468.36 653.366C468.318 654.163 468.478 654.958 468.825 655.679C469.173 656.4 469.698 657.023 470.352 657.493C471.461 658.351 472.77 658.919 474.161 659.144C474.554 659.175 474.937 659.288 475.283 659.476C475.63 659.664 475.932 659.922 476.169 660.233C478.073 662.877 480.68 664.951 483.703 666.225C490.131 668.702 499.371 671.12 502.803 666.308C508.311 658.632 499.296 650.412 499.296 650.412ZM391.07 503.218H391.171H391.07ZM458.324 469.478C458.324 469.478 459.404 473.481 461.329 475.585C463.254 477.69 462.3 490.764 462.3 490.764C461.543 490.811 460.791 490.93 460.057 491.118C458.575 482.427 457.211 472.779 458.324 469.478Z" fill="url(#paint0_linear)"/>
<path d="M365.742 634.227L348.91 635.877L348.441 630.323L348.114 626.501L347.654 620.914L363.557 621.739L364.821 628.911L365.089 630.471H365.098L365.742 634.227Z" fill="#8E6F7F"/>
<path d="M488.323 621.747L487.862 627.327L487.544 631.148L487.067 636.703L470.227 635.052L470.896 631.297L471.156 629.745L472.42 622.573L488.323 621.747Z" fill="#8E6F7F"/>
<path d="M470.486 541.366L420.433 543.685C418.156 543.795 415.879 543.795 413.603 543.685L365.784 541.374V504.019H470.486V541.366Z" fill="#5F5570"/>
<path opacity="0.1" d="M470.486 541.366L420.433 543.685C418.156 543.795 415.879 543.795 413.603 543.685L365.784 541.374V504.019H470.486V541.366Z" fill="black"/>
<path d="M406.387 403.375C406.387 403.375 389.714 408.897 383.437 413.436C382.131 414.377 380.925 415.153 379.871 415.788C375.994 418.146 373.027 421.713 371.442 425.924C371.4 426.039 371.358 426.138 371.317 426.229C370.479 428.086 366.504 440.673 366.504 440.673C366.504 440.673 363.574 447.688 363.156 452.228C362.737 456.767 387.011 468.941 387.011 468.941C387.011 468.941 375.292 494.114 380.524 500.511C385.755 506.907 462.133 510.003 460.459 500.511C458.785 491.019 455.855 475.338 457.32 471.005L483.267 452.434C483.267 452.434 482.221 426.435 474.06 419.626C465.899 412.817 455.646 410.341 455.646 410.341L439.399 406.214C439.399 406.214 433.674 420.245 427.397 422.102C421.119 423.959 407.367 415.384 406.387 403.375Z" fill="#EAEAF2"/>
<path opacity="0.1" d="M429.807 427.005C429.807 427.005 422.726 432.832 419.01 427.005C419.01 427.005 415.662 436.86 419.01 440.161L418.884 440.83L418.29 443.768L410.539 507.32L416.917 518.174L428.526 503.812L427.589 444.387L427.171 440.978L427.07 440.153H429.054C429.054 440.153 434.319 431.181 429.807 427.005Z" fill="black"/>
<path opacity="0.1" d="M431.481 427.005C431.481 427.005 424.4 432.832 420.684 427.005C420.684 427.005 417.336 436.86 420.684 440.161L420.558 440.83L419.964 443.768L412.213 507.32L418.591 518.174L430.201 503.812L429.263 444.387L428.845 440.978L428.744 440.153H430.728C430.728 440.153 435.993 431.181 431.481 427.005Z" fill="black"/>
<path d="M429.364 502.995L417.754 517.332L411.359 506.536L419.118 442.951L419.713 440.013L419.847 439.336L420.893 436.662L427.907 439.336L428.008 440.161L428.426 443.57L429.364 502.995Z" fill="#BC8487"/>
<path opacity="0.1" d="M364.821 628.903C361.209 628.88 357.608 628.518 354.066 627.822C352.316 627.393 350.123 626.914 348.123 626.493L347.654 620.905L363.557 621.731L364.821 628.903Z" fill="black"/>
<path d="M417.88 543.76C416.49 547.614 374.991 546.937 374.991 546.937C374.991 546.937 372.765 604.712 369.417 611.868C366.068 619.024 365.784 628.094 365.784 628.094C365.784 628.094 358.535 628.094 354.066 626.996C349.596 625.899 342.347 624.52 342.347 624.52L344.306 526.51C344.306 526.51 345.143 525.478 347.093 519.28C348.349 515.293 355.715 510.126 360.812 506.899C363.658 505.133 365.784 503.977 365.784 503.977L390.543 504.968L405.827 505.579C405.827 505.579 419.277 539.905 417.88 543.76Z" fill="#5F5570"/>
<path opacity="0.1" d="M365.75 634.218L348.91 635.869L348.433 630.314C349.063 630.332 349.685 630.466 350.266 630.71C353.337 632.889 362.118 631.156 365.089 630.463L365.75 634.218Z" fill="black"/>
<path d="M368.931 650.271C368.951 651.055 368.778 651.831 368.426 652.534C368.075 653.237 367.556 653.846 366.914 654.307C365.854 655.127 364.602 655.669 363.273 655.884C362.889 655.916 362.517 656.029 362.181 656.214C361.845 656.399 361.552 656.652 361.323 656.957C359.462 659.544 356.913 661.575 353.957 662.825C348.156 665.07 339.995 667.274 336.17 663.832C335.854 663.555 335.573 663.242 335.333 662.899C330.001 655.372 338.79 647.317 338.79 647.317C338.79 647.317 342.758 638.139 344.54 633.913C344.733 633.365 345.041 632.863 345.443 632.44C345.846 632.017 346.334 631.682 346.877 631.458C347.42 631.233 348.004 631.124 348.592 631.138C349.181 631.151 349.759 631.287 350.291 631.536C353.639 633.913 363.792 631.635 365.775 631.132C367.759 630.628 368.395 638.65 368.395 638.65L368.931 650.148C368.927 650.189 368.927 650.23 368.931 650.271V650.271Z" fill="#BC8487"/>
<path opacity="0.1" d="M488.331 621.739L487.863 627.318C485.862 627.739 483.677 628.218 481.911 628.647C478.372 629.345 474.773 629.71 471.164 629.737L472.428 622.564L488.331 621.739Z" fill="black"/>
<path d="M493.646 625.346C493.646 625.346 486.398 626.724 481.928 627.822C477.458 628.92 470.21 628.92 470.21 628.92C470.21 628.92 469.934 619.841 466.586 612.693C463.237 605.546 461.003 547.763 461.003 547.763C461.003 547.763 421.847 547.54 420.449 543.685C419.051 539.831 437.516 506.544 437.516 506.544L448.774 505.967L470.21 504.844C470.21 504.844 474.395 507.089 478.781 510.118C483.167 513.147 487.929 516.993 488.909 520.105C490.859 526.303 491.696 527.335 491.696 527.335L493.646 625.346Z" fill="#5F5570"/>
<path opacity="0.1" d="M487.544 631.14L487.076 636.694L470.227 635.044L470.896 631.288C473.868 631.99 482.614 633.715 485.711 631.536C486.292 631.291 486.914 631.157 487.544 631.14Z" fill="black"/>
<path d="M485.711 632.361C486.243 632.111 486.823 631.974 487.412 631.96C488.001 631.946 488.587 632.054 489.13 632.279C489.674 632.503 490.163 632.838 490.567 633.262C490.97 633.686 491.278 634.189 491.47 634.738C493.245 638.964 497.22 648.15 497.22 648.15C497.22 648.15 506.009 656.197 500.677 663.725C497.329 668.446 488.323 666.077 482.062 663.65C479.103 662.405 476.553 660.374 474.696 657.782C474.465 657.477 474.171 657.223 473.834 657.038C473.496 656.853 473.123 656.741 472.738 656.709C471.378 656.476 470.1 655.908 469.021 655.058C468.388 654.596 467.88 653.986 467.542 653.284C467.205 652.581 467.049 651.807 467.088 651.031L467.615 639.476C467.615 639.476 468.243 631.445 470.227 631.949C472.21 632.452 482.363 634.738 485.711 632.361Z" fill="#BC8487"/>
<path d="M442.446 410.341L425.547 428.004L425.078 428.499L424.467 428.144C420.935 426.081 403.265 415.566 404.78 412.404C405.617 410.605 406.111 406.858 406.371 403.631C406.371 403.243 406.421 402.863 406.454 402.492C406.622 399.942 406.664 397.961 406.664 397.961C406.664 397.961 438.47 392.596 437.215 397.961C436.704 400.131 437.466 402.575 438.546 404.712C438.864 405.331 439.215 405.917 439.558 406.47C440.403 407.842 441.37 409.137 442.446 410.341V410.341Z" fill="#FFC4D0"/>
<path opacity="0.1" d="M438.546 404.712C433.8 408.16 427.966 409.83 422.086 409.424C416.206 409.017 410.665 406.56 406.454 402.492C406.622 399.942 406.664 397.961 406.664 397.961C406.664 397.961 438.47 392.596 437.215 397.961C436.729 400.148 437.466 402.575 438.546 404.712Z" fill="black"/>
<path d="M448.648 384.169C448.74 390.522 446.325 396.661 441.911 401.291C437.498 405.92 431.433 408.677 424.997 408.979C418.562 409.281 412.258 407.105 407.419 402.91C402.58 398.715 399.584 392.829 399.064 386.497C398.997 385.726 398.963 384.951 398.963 384.169C398.903 380.916 399.5 377.684 400.721 374.661C401.941 371.638 403.761 368.885 406.072 366.563C408.384 364.242 411.142 362.398 414.184 361.139C417.227 359.88 420.494 359.231 423.793 359.231C427.093 359.231 430.359 359.88 433.402 361.139C436.445 362.398 439.202 364.242 441.514 366.563C443.826 368.885 445.645 371.638 446.866 374.661C448.086 377.684 448.684 380.916 448.623 384.169H448.648Z" fill="#FFC4D0"/>
<path opacity="0.1" d="M448.339 380.257C447.692 380.776 446.943 381.155 446.138 381.37C445.333 381.585 444.492 381.63 443.668 381.503C439.835 380.678 438.52 374.9 434.603 374.504C430.686 374.108 428.083 379.456 424.115 379.349C422.441 379.308 420.935 378.227 419.395 377.476C416.699 376.163 412.263 375.363 409.35 376.353C404.973 377.83 403.491 381.825 400.696 385.003C400.218 385.544 399.695 386.044 399.131 386.497C399.064 385.726 399.03 384.951 399.03 384.169C398.973 377.976 401.298 371.991 405.537 367.421C409.776 362.85 415.614 360.033 421.875 359.537C428.135 359.041 434.354 360.903 439.279 364.748C444.203 368.592 447.468 374.134 448.414 380.257H448.339Z" fill="black"/>
<path d="M419.395 376.658C420.935 377.401 422.408 378.491 424.115 378.532C428.075 378.631 430.661 373.258 434.595 373.679C438.529 374.1 439.826 379.828 443.676 380.678C446.263 381.256 448.699 379.349 450.632 377.575C451.881 376.593 452.901 375.357 453.62 373.951C454.457 371.904 454.022 369.544 453.244 367.464C452.465 365.384 451.369 363.387 450.984 361.2C450.515 358.575 451.059 355.703 449.795 353.342C449.272 352.45 448.555 351.684 447.695 351.099C446.835 350.514 445.854 350.124 444.823 349.958C442.753 349.642 440.634 349.878 438.688 350.643C437.74 351.097 436.716 351.377 435.666 351.469C434.9 351.423 434.149 351.241 433.448 350.932C431.027 349.991 428.729 348.77 426.601 347.292C425.076 346.092 423.443 345.031 421.722 344.123C420.857 343.675 419.902 343.423 418.926 343.385C417.951 343.346 416.978 343.522 416.08 343.9C413.067 345.419 412.489 349.678 409.685 351.518C407.752 352.806 405.232 352.674 402.906 352.764C400.579 352.855 397.883 353.408 396.779 355.414C395.791 357.139 396.285 359.26 396.41 361.233C396.535 363.31 396.219 365.39 395.481 367.34C394.184 370.757 391.547 374.125 392.485 377.657C393.096 379.976 395.205 381.899 395.079 384.26C394.981 384.869 394.928 385.484 394.92 386.1C394.923 386.411 395.033 386.711 395.233 386.951C395.432 387.191 395.709 387.357 396.017 387.421C396.352 387.417 396.679 387.313 396.954 387.124C398.346 386.356 399.594 385.36 400.646 384.177C403.475 380.992 404.939 377.005 409.317 375.528C412.272 374.562 416.699 375.338 419.395 376.658Z" fill="#8E6F7F"/>
<path d="M448.196 520.732L443.676 521.945L433.239 524.776C430.823 526.551 428.105 527.884 425.212 528.713C418.825 530.306 414.699 526.84 411.267 521.475C409.886 519.329 410.581 517.612 412.389 516.267C416.741 513.023 427.505 511.967 430.803 512.396C432.969 512.57 435.146 512.236 437.156 511.422C438.583 510.91 439.959 510.269 441.266 509.507L448.196 520.732Z" fill="#FFC4D0"/>
<path opacity="0.1" d="M448.196 520.732L443.676 521.945C442.379 518.091 440.245 513.254 437.19 511.397C438.617 510.886 439.992 510.245 441.299 509.483L448.196 520.732Z" fill="black"/>
<path opacity="0.1" d="M478.764 510.118C476.889 511.612 475.299 512.974 475.299 512.974C475.299 512.974 453.537 519.7 449.351 528.16C449.351 528.16 446.003 511.653 438.889 511.447C438.889 511.447 446.547 508.484 448.757 505.95L470.21 504.844C470.21 504.844 474.395 507.089 478.764 510.118Z" fill="black"/>
<path d="M478.438 445.419L483.251 452.434L484.715 474.306C484.715 474.306 485.134 495.352 484.715 496.178L485.134 495.352C485.134 495.352 484.297 503.606 481.786 505.05C479.275 506.495 473.625 511.323 473.625 511.323C473.625 511.323 451.863 518.05 447.677 526.51C447.677 526.51 444.329 510.003 437.215 509.796C437.215 509.796 447.887 505.669 447.677 502.987C447.677 502.987 455.838 495.765 456.466 493.908C457.094 492.051 461.17 491.845 461.17 491.845C461.17 491.845 462.116 479.052 460.233 476.988C458.349 474.925 457.303 471.005 457.303 471.005L478.438 445.419Z" fill="#EAEAF2"/>
<path opacity="0.1" d="M425.212 528.689C418.825 530.282 414.699 526.815 411.267 521.45C409.886 519.304 410.581 517.588 412.389 516.242L413.042 516.498C413.042 516.498 424.551 521.417 425.212 528.689Z" fill="black"/>
<path d="M422.567 535.283C415.034 545.6 401.014 531.255 399.968 528.367C399.591 527.318 398.16 526.386 396.511 525.635C394.419 524.734 392.247 524.023 390.024 523.514L402.479 513.51L404.864 514.451L412.205 517.348C412.205 517.348 430.1 524.966 422.567 535.283Z" fill="#FFC4D0"/>
<path opacity="0.1" d="M404.864 514.451C398.001 517.67 396.536 522.3 396.494 525.635C394.402 524.734 392.231 524.023 390.007 523.514L402.462 513.51L404.864 514.451Z" fill="black"/>
<path opacity="0.1" d="M393.899 532.287C393.899 532.287 373.811 516.605 364.185 509.796C362.981 508.95 361.86 507.994 360.837 506.941C363.683 505.174 365.809 504.019 365.809 504.019L390.568 505.009C391.229 506.14 391.623 506.907 391.623 506.907L405.015 515.574C388.877 520.732 393.899 532.287 393.899 532.287Z" fill="black"/>
<path d="M367.115 449.958L363.139 452.228C363.139 452.228 358.326 467.291 359.582 477.195C359.582 477.195 355.815 491.432 357.28 493.702C357.28 493.702 355.397 501.336 365.022 508.146C374.648 514.955 394.736 530.636 394.736 530.636C394.736 530.636 389.714 519.081 405.827 513.923L392.434 505.257C392.434 505.257 387.94 496.459 383.646 494.527C383.646 494.527 380.298 491.226 382.39 488.956C384.483 486.686 386.157 484.21 386.157 481.941C386.157 479.671 386.994 468.941 386.994 468.941L389.505 457.386L367.115 449.958Z" fill="#EAEAF2"/>
<path opacity="0.1" d="M428.008 440.153H419.847C419.797 440.108 419.753 440.058 419.713 440.004L419.847 439.328L420.893 436.653L427.907 439.328L428.008 440.153Z" fill="black"/>
<path d="M430.644 426.18C430.644 426.18 423.563 432.007 419.847 426.18C419.847 426.18 416.499 436.034 419.847 439.336H429.891C429.891 439.336 435.156 430.356 430.644 426.18Z" fill="#BC8487"/>
<path opacity="0.1" d="M440.22 407.04L450.766 409.722C450.766 409.722 440.772 435.308 438.571 435.308L425.915 429.324L440.22 407.04Z" fill="black"/>
<path opacity="0.1" d="M442.446 410.341L425.547 428.004L425.078 428.499L424.467 428.144L439.24 405.925L439.6 406.511C440.434 407.867 441.386 409.149 442.446 410.341V410.341Z" fill="black"/>
<path d="M439.383 406.214L449.929 408.897C449.929 408.897 439.935 434.483 437.734 434.483L425.078 428.499L439.383 406.214Z" fill="#EAEAF2"/>
<path opacity="0.1" d="M405.55 404.2L396.41 407.04C396.41 407.04 405.408 433.864 407.919 435.308L424.241 429.324L405.55 404.2Z" fill="black"/>
<path opacity="0.1" d="M425.547 428.004L425.078 428.499C425.078 428.499 403.106 415.912 404.78 412.404C405.617 410.605 406.111 406.858 406.371 403.631V403.128L425.547 428.004Z" fill="black"/>
<path d="M406.387 403.375L397.247 406.214C397.247 406.214 406.245 433.038 408.756 434.483L425.078 428.499L406.387 403.375Z" fill="#EAEAF2"/>
<path opacity="0.1" d="M384.617 447.193C384.617 447.193 390.124 448.159 390.024 453.796C389.923 459.433 392.292 446.508 392.292 446.508L384.617 447.193Z" fill="black"/>
<path opacity="0.1" d="M385.872 464.526C385.872 464.526 384.34 473.051 385.872 480.76C387.404 488.469 387.27 491.077 388.459 491.49C389.647 491.903 385.872 464.526 385.872 464.526Z" fill="black"/>
<path opacity="0.1" d="M456.182 463.7C455.742 463.755 455.32 463.904 454.946 464.138C454.571 464.371 454.253 464.682 454.014 465.049C453.774 465.417 453.619 465.832 453.56 466.264C453.501 466.697 453.538 467.138 453.67 467.555C454.374 471.005 456.182 463.7 456.182 463.7Z" fill="black"/>
<path opacity="0.1" d="M360.486 492.588C360.486 492.588 378.423 491.077 381.411 494.238C384.399 497.4 360.486 492.588 360.486 492.588Z" fill="black"/>
<path opacity="0.1" d="M464.552 493.784C464.552 493.784 477.668 492.191 480.74 494.395Z" fill="black"/>
<path opacity="0.1" d="M469.858 495.889C469.858 495.889 477.668 496.161 479.484 497.127Z" fill="black"/>
<path opacity="0.1" d="M471.39 498.654C471.39 498.654 478.505 498.382 479.484 499.479Z" fill="black"/>
<path opacity="0.1" d="M371.057 537.446C371.057 537.446 377.151 540.574 376.531 543.768C375.912 546.962 371.057 537.446 371.057 537.446Z" fill="black"/>
<path opacity="0.1" d="M365.784 538.964C365.784 538.964 375.083 550.858 373.819 554.778C372.555 558.698 365.784 538.964 365.784 538.964Z" fill="black"/>
<path opacity="0.1" d="M465.464 540.937C465.464 540.937 460.86 544.676 460.986 547.762Z" fill="black"/>
<path opacity="0.1" d="M359.163 614.616C359.163 614.616 359.163 618.124 365.75 623.282Z" fill="black"/>
<path opacity="0.1" d="M475.433 606.363C475.433 606.363 474.73 613.659 468.318 617.439Z" fill="black"/>
<g opacity="0.1">
<path opacity="0.1" d="M396.41 358.723C396.41 358.154 396.31 357.568 396.26 356.99C396.153 358.251 396.192 359.519 396.377 360.77C396.434 360.09 396.445 359.406 396.41 358.723Z" fill="black"/>
<path opacity="0.1" d="M395.079 381.784C395.205 379.39 393.096 377.467 392.485 375.181C392.453 375.07 392.431 374.957 392.418 374.843C392.227 375.774 392.25 376.736 392.485 377.657C392.978 379.547 394.468 381.165 394.937 382.997C394.979 382.568 395.063 382.18 395.079 381.784Z" fill="black"/>
<path opacity="0.1" d="M453.62 371.475C452.899 372.88 451.88 374.116 450.632 375.099C448.682 376.873 446.263 378.78 443.676 378.202C439.835 377.376 438.512 371.599 434.595 371.203C430.678 370.807 428.075 376.155 424.115 376.048C422.441 376.006 420.935 374.925 419.395 374.174C416.699 372.862 412.272 372.061 409.35 373.052C404.973 374.529 403.491 378.524 400.679 381.701C399.629 382.884 398.384 383.883 396.996 384.656C396.715 384.839 396.387 384.939 396.05 384.945C395.84 384.917 395.642 384.833 395.477 384.702C395.312 384.571 395.186 384.398 395.113 384.202V384.26C395.014 384.872 394.961 385.489 394.954 386.109C394.959 386.418 395.07 386.716 395.269 386.954C395.468 387.193 395.744 387.357 396.05 387.421C396.387 387.415 396.715 387.315 396.996 387.132C398.384 386.359 399.629 385.36 400.679 384.177C403.508 381 404.973 377.005 409.35 375.528C412.305 374.537 416.733 375.338 419.395 376.65C420.935 377.401 422.408 378.482 424.115 378.524C428.075 378.623 430.661 373.25 434.595 373.679C438.529 374.108 439.835 379.82 443.676 380.678C446.263 381.256 448.699 379.349 450.632 377.575C451.88 376.592 452.899 375.356 453.62 373.951C454.087 372.758 454.211 371.462 453.98 370.204C453.909 370.64 453.789 371.066 453.62 371.475V371.475Z" fill="black"/>
</g>
<path opacity="0.1" d="M338.798 647.325C338.798 647.325 345.637 645.245 348.474 649.19Z" fill="black"/>
<path opacity="0.1" d="M497.22 648.15C497.22 648.15 485.896 647.498 486.339 650.519Z" fill="black"/>
<path opacity="0.1" d="M723.323 642.034C735.772 642.034 745.864 640.353 745.864 638.279C745.864 636.205 735.772 634.524 723.323 634.524C710.874 634.524 700.782 636.205 700.782 638.279C700.782 640.353 710.874 642.034 723.323 642.034Z" fill="#62D2A2"/>
<path opacity="0.1" d="M76.2437 672.853C88.6926 672.853 98.7845 671.172 98.7845 669.098C98.7845 667.024 88.6926 665.342 76.2437 665.342C63.7947 665.342 53.7029 667.024 53.7029 669.098C53.7029 671.172 63.7947 672.853 76.2437 672.853Z" fill="#62D2A2"/>
<path opacity="0.1" d="M163.436 693C175.884 693 185.976 691.319 185.976 689.245C185.976 687.171 175.884 685.489 163.436 685.489C150.987 685.489 140.895 687.171 140.895 689.245C140.895 691.319 150.987 693 163.436 693Z" fill="#62D2A2"/>
<path d="M673.981 684.136C692.569 684.136 707.638 681.623 707.638 678.523C707.638 675.424 692.569 672.911 673.981 672.911C655.393 672.911 640.325 675.424 640.325 678.523C640.325 681.623 655.393 684.136 673.981 684.136Z" fill="#62D2A2"/>
<path d="M687.901 669.345C689.435 668.109 690.552 666.442 691.106 664.567C691.525 662.676 690.705 660.44 688.863 659.705C686.804 658.929 684.603 660.341 682.937 661.76C681.272 663.18 679.355 664.806 677.17 664.501C678.294 663.498 679.136 662.225 679.613 660.806C680.09 659.387 680.185 657.87 679.89 656.404C679.792 655.796 679.529 655.225 679.129 654.753C677.99 653.548 675.915 654.06 674.55 655.017C670.198 658.03 668.984 663.865 668.959 669.106C668.515 667.216 668.892 665.243 668.875 663.329C668.859 661.414 668.331 659.202 666.666 658.187C665.638 657.643 664.483 657.375 663.318 657.411C661.359 657.336 659.183 657.535 657.843 658.946C656.169 660.696 656.621 663.634 658.061 665.549C659.501 667.464 661.702 668.693 663.728 670.022C665.348 670.975 666.73 672.275 667.77 673.827C667.896 674.044 667.997 674.274 668.072 674.512H680.301C683.058 673.135 685.615 671.397 687.901 669.345V669.345Z" fill="#62D2A2"/>
<path d="M164.599 596.954C164.599 596.954 169.203 602.888 162.481 611.81C155.76 620.732 150.219 628.317 152.437 633.905C152.437 633.905 162.582 617.274 170.851 617.043C179.121 616.812 173.681 606.957 164.599 596.954Z" fill="#62D2A2"/>
<path opacity="0.1" d="M164.599 596.954C165 597.528 165.316 598.156 165.536 598.819C173.589 608.145 177.882 616.853 170.14 617.067C162.933 617.274 154.287 629.984 152.211 633.195C152.278 633.442 152.362 633.682 152.454 633.929C152.454 633.929 162.599 617.299 170.868 617.067C179.138 616.836 173.681 606.957 164.599 596.954Z" fill="black"/>
<path d="M173.145 604.514C173.145 606.602 172.911 608.294 172.618 608.294C172.325 608.294 172.09 606.602 172.09 604.514C172.09 602.426 172.383 603.408 172.676 603.408C172.969 603.408 173.145 602.426 173.145 604.514Z" fill="#FFD037"/>
<path d="M176.083 607.006C174.225 608.005 172.601 608.608 172.467 608.352C172.333 608.096 173.714 607.081 175.572 606.082C177.43 605.083 176.702 605.81 176.836 606.082C176.97 606.354 177.941 606.008 176.083 607.006Z" fill="#FFD037"/>
<path d="M140.317 596.954C140.317 596.954 135.714 602.888 142.435 611.81C149.156 620.732 154.697 628.317 152.479 633.905C152.479 633.905 142.343 617.274 134.065 617.043C125.787 616.812 131.219 606.957 140.317 596.954Z" fill="#62D2A2"/>
<path opacity="0.1" d="M140.317 596.954C139.915 597.528 139.596 598.156 139.371 598.819C131.319 608.145 127.034 616.853 134.768 617.067C141.983 617.274 150.629 629.984 152.705 633.195C152.636 633.444 152.553 633.69 152.454 633.929C152.454 633.929 142.318 617.299 134.04 617.067C125.761 616.836 131.219 606.957 140.317 596.954Z" fill="black"/>
<path d="M131.763 604.514C131.763 606.602 132.006 608.294 132.299 608.294C132.592 608.294 132.826 606.602 132.826 604.514C132.826 602.426 132.533 603.408 132.24 603.408C131.947 603.408 131.763 602.426 131.763 604.514Z" fill="#FFD037"/>
<path d="M128.833 607.006C130.692 608.005 132.307 608.608 132.449 608.352C132.592 608.096 131.194 607.081 129.336 606.082C127.477 605.083 128.214 605.81 128.072 606.082C127.929 606.354 126.975 606.008 128.833 607.006Z" fill="#FFD037"/>
<path d="M133.228 633.154C133.228 633.154 146.084 632.757 149.968 630.042C153.852 627.327 169.747 624.066 170.701 628.433C171.655 632.799 190.028 650.131 175.514 650.247C161 650.362 141.782 648.018 137.915 645.699C134.048 643.38 133.228 633.154 133.228 633.154Z" fill="#A8A8A8"/>
<path opacity="0.2" d="M175.765 648.728C161.251 648.844 142.033 646.5 138.166 644.18C135.228 642.406 134.048 636.059 133.655 633.137H133.228C133.228 633.137 134.065 643.355 137.907 645.682C141.748 648.01 160.991 650.346 175.505 650.23C179.69 650.23 181.138 648.728 181.063 646.549C180.477 647.886 178.878 648.703 175.765 648.728Z" fill="black"/>
</g>
<defs>
<linearGradient id="paint0_linear" x1="331.383" y1="504.11" x2="504.603" y2="504.11" gradientUnits="userSpaceOnUse">
<stop stop-color="#808080" stop-opacity="0.25"/>
<stop offset="0.54" stop-color="#808080" stop-opacity="0.12"/>
<stop offset="1" stop-color="#808080" stop-opacity="0.1"/>
</linearGradient>
<clipPath id="clip0">
<rect width="845" height="693" fill="white"/>
</clipPath>
</defs>
</svg>
